<svg width="336" height="75" viewBox="0 0 336 75" fill="none" xmlns="http://www.w3.org/2000/svg">
<path d="M7.33776 48.7675L0 53.656L0.16435 11.3789L31.826 32.4478L25.0522 36.9607L7.33776 24.9047C7.33776 33.0921 7.33776 48.7675 7.33776 48.7675Z" fill="#B404BC"/>
<path d="M64.0002 53.9828L31.8294 75L31.8101 66.0745L50.3913 53.8889L32.0066 41.4056L38.6644 36.9898L64.0002 53.9828Z" fill="#B404BC"/>
<path d="M31.8099 66.0745L31.8292 75L0 53.6591L64 11V53.9829L56.5172 48.9649L56.2723 25.3125L13.3349 53.7918L31.8099 66.0745Z" fill="#FD0498"/>
<path d="M93.728 25.976C95.712 25.976 97.456 26.376 98.96 27.176C100.464 27.944 101.648 28.952 102.512 30.2V26.408H109.28V53.192C109.28 55.656 108.784 57.848 107.792 59.768C106.8 61.72 105.312 63.256 103.328 64.376C101.344 65.528 98.944 66.104 96.128 66.104C92.352 66.104 89.248 65.224 86.816 63.464C84.416 61.704 83.056 59.304 82.736 56.264H89.408C89.76 57.48 90.512 58.44 91.664 59.144C92.848 59.88 94.272 60.248 95.936 60.248C97.888 60.248 99.472 59.656 100.688 58.472C101.904 57.32 102.512 55.56 102.512 53.192V49.064C101.648 50.312 100.448 51.352 98.912 52.184C97.408 53.016 95.68 53.432 93.728 53.432C91.488 53.432 89.44 52.856 87.584 51.704C85.728 50.552 84.256 48.936 83.168 46.856C82.112 44.744 81.584 42.328 81.584 39.608C81.584 36.92 82.112 34.536 83.168 32.456C84.256 30.376 85.712 28.776 87.536 27.656C89.392 26.536 91.456 25.976 93.728 25.976ZM102.512 39.704C102.512 38.072 102.192 36.68 101.552 35.528C100.912 34.344 100.048 33.448 98.96 32.84C97.872 32.2 96.704 31.88 95.456 31.88C94.208 31.88 93.056 32.184 92 32.792C90.944 33.4 90.08 34.296 89.408 35.48C88.768 36.632 88.448 38.008 88.448 39.608C88.448 41.208 88.768 42.616 89.408 43.832C90.08 45.016 90.944 45.928 92 46.568C93.088 47.208 94.24 47.528 95.456 47.528C96.704 47.528 97.872 47.224 98.96 46.616C100.048 45.976 100.912 45.08 101.552 43.928C102.192 42.744 102.512 41.336 102.512 39.704ZM140.563 39.128C140.563 40.088 140.499 40.952 140.371 41.72H120.931C121.091 43.64 121.763 45.144 122.947 46.232C124.131 47.32 125.587 47.864 127.315 47.864C129.811 47.864 131.587 46.792 132.643 44.648H139.891C139.123 47.208 137.651 49.32 135.475 50.984C133.299 52.616 130.627 53.432 127.459 53.432C124.899 53.432 122.595 52.872 120.547 51.752C118.531 50.6 116.947 48.984 115.795 46.904C114.675 44.824 114.115 42.424 114.115 39.704C114.115 36.952 114.675 34.536 115.795 32.456C116.915 30.376 118.483 28.776 120.499 27.656C122.515 26.536 124.835 25.976 127.459 25.976C129.987 25.976 132.243 26.52 134.227 27.608C136.243 28.696 137.795 30.248 138.883 32.264C140.003 34.248 140.563 36.536 140.563 39.128ZM133.603 37.208C133.571 35.48 132.947 34.104 131.731 33.08C130.515 32.024 129.027 31.496 127.267 31.496C125.603 31.496 124.195 32.008 123.043 33.032C121.923 34.024 121.235 35.416 120.979 37.208H133.603ZM170.188 39.128C170.188 40.088 170.124 40.952 169.996 41.72H150.556C150.716 43.64 151.388 45.144 152.572 46.232C153.756 47.32 155.212 47.864 156.94 47.864C159.436 47.864 161.212 46.792 162.268 44.648H169.516C168.748 47.208 167.276 49.32 165.1 50.984C162.924 52.616 160.252 53.432 157.084 53.432C154.524 53.432 152.22 52.872 150.172 51.752C148.156 50.6 146.572 48.984 145.42 46.904C144.3 44.824 143.74 42.424 143.74 39.704C143.74 36.952 144.3 34.536 145.42 32.456C146.54 30.376 148.108 28.776 150.124 27.656C152.14 26.536 154.46 25.976 157.084 25.976C159.612 25.976 161.868 26.52 163.852 27.608C165.868 28.696 167.42 30.248 168.508 32.264C169.628 34.248 170.188 36.536 170.188 39.128ZM163.228 37.208C163.196 35.48 162.572 34.104 161.356 33.08C160.14 32.024 158.652 31.496 156.892 31.496C155.228 31.496 153.82 32.008 152.668 33.032C151.548 34.024 150.86 35.416 150.604 37.208H163.228ZM190.837 53L181.813 41.672V53H175.093V17.48H181.813V37.688L190.741 26.408H199.477L187.765 39.752L199.573 53H190.837ZM228.565 26.408L212.101 65.576H204.949L210.709 52.328L200.053 26.408H207.589L214.453 44.984L221.413 26.408H228.565ZM230.459 39.704C230.459 36.952 231.019 34.552 232.139 32.504C233.259 30.424 234.811 28.824 236.795 27.704C238.779 26.552 241.051 25.976 243.611 25.976C246.907 25.976 249.627 26.808 251.771 28.472C253.947 30.104 255.403 32.408 256.139 35.384H248.891C248.507 34.232 247.851 33.336 246.923 32.696C246.027 32.024 244.907 31.688 243.563 31.688C241.643 31.688 240.123 32.392 239.003 33.8C237.883 35.176 237.323 37.144 237.323 39.704C237.323 42.232 237.883 44.2 239.003 45.608C240.123 46.984 241.643 47.672 243.563 47.672C246.283 47.672 248.059 46.456 248.891 44.024H256.139C255.403 46.904 253.947 49.192 251.771 50.888C249.595 52.584 246.875 53.432 243.611 53.432C241.051 53.432 238.779 52.872 236.795 51.752C234.811 50.6 233.259 49 232.139 46.952C231.019 44.872 230.459 42.456 230.459 39.704ZM259.334 39.608C259.334 36.92 259.862 34.536 260.918 32.456C262.006 30.376 263.462 28.776 265.286 27.656C267.142 26.536 269.206 25.976 271.478 25.976C273.462 25.976 275.19 26.376 276.662 27.176C278.166 27.976 279.366 28.984 280.262 30.2V26.408H287.03V53H280.262V49.112C279.398 50.36 278.198 51.4 276.662 52.232C275.158 53.032 273.414 53.432 271.43 53.432C269.19 53.432 267.142 52.856 265.286 51.704C263.462 50.552 262.006 48.936 260.918 46.856C259.862 44.744 259.334 42.328 259.334 39.608ZM280.262 39.704C280.262 38.072 279.942 36.68 279.302 35.528C278.662 34.344 277.798 33.448 276.71 32.84C275.622 32.2 274.454 31.88 273.206 31.88C271.958 31.88 270.806 32.184 269.75 32.792C268.694 33.4 267.83 34.296 267.158 35.48C266.518 36.632 266.198 38.008 266.198 39.608C266.198 41.208 266.518 42.616 267.158 43.832C267.83 45.016 268.694 45.928 269.75 46.568C270.838 47.208 271.99 47.528 273.206 47.528C274.454 47.528 275.622 47.224 276.71 46.616C277.798 45.976 278.662 45.08 279.302 43.928C279.942 42.744 280.262 41.336 280.262 39.704ZM301.417 31.928V44.792C301.417 45.688 301.625 46.344 302.041 46.76C302.489 47.144 303.225 47.336 304.249 47.336H307.369V53H303.145C297.481 53 294.649 50.248 294.649 44.744V31.928H291.481V26.408H294.649V19.832H301.417V26.408H307.369V31.928H301.417ZM322.379 53.432C320.203 53.432 318.251 53.048 316.523 52.28C314.795 51.48 313.419 50.408 312.395 49.064C311.403 47.72 310.859 46.232 310.763 44.6H317.531C317.659 45.624 318.155 46.472 319.019 47.144C319.915 47.816 321.019 48.152 322.331 48.152C323.611 48.152 324.603 47.896 325.307 47.384C326.043 46.872 326.411 46.216 326.411 45.416C326.411 44.552 325.963 43.912 325.067 43.496C324.203 43.048 322.811 42.568 320.891 42.056C318.907 41.576 317.275 41.08 315.995 40.568C314.747 40.056 313.659 39.272 312.731 38.216C311.835 37.16 311.387 35.736 311.387 33.944C311.387 32.472 311.803 31.128 312.635 29.912C313.499 28.696 314.715 27.736 316.283 27.032C317.883 26.328 319.755 25.976 321.899 25.976C325.067 25.976 327.595 26.776 329.483 28.376C331.371 29.944 332.411 32.072 332.603 34.76H326.171C326.075 33.704 325.627 32.872 324.827 32.264C324.059 31.624 323.019 31.304 321.707 31.304C320.491 31.304 319.547 31.528 318.875 31.976C318.235 32.424 317.915 33.048 317.915 33.848C317.915 34.744 318.363 35.432 319.259 35.912C320.155 36.36 321.547 36.824 323.435 37.304C325.355 37.784 326.939 38.28 328.187 38.792C329.435 39.304 330.507 40.104 331.403 41.192C332.331 42.248 332.811 43.656 332.843 45.416C332.843 46.952 332.411 48.328 331.547 49.544C330.715 50.76 329.499 51.72 327.899 52.424C326.331 53.096 324.491 53.432 322.379 53.432Z" fill="black"/>
</svg>
