<?xml version="1.0" encoding="iso-8859-1"?>
<!-- Generator: Adobe Illustrator 19.0.0, SVG Export Plug-In . SVG Version: 6.00 Build 0)  -->
<svg version="1.1" id="Layer_1" xmlns="http://www.w3.org/2000/svg" xmlns:xlink="http://www.w3.org/1999/xlink" x="0px" y="0px"
	 viewBox="0 0 364.637 364.637" style="enable-background:new 0 0 364.637 364.637;" xml:space="preserve">
<g>
	<g>
		<path d="M325.955,355.131l-2.996-53.185c-2.178-38.677-30.248-70.074-66.788-77.772l12.258-2.044
			c18.478-3.082,31.889-18.915,31.889-37.648V118c0-65.065-52.935-118-118-118s-118,52.935-118,118v66.688
			c0,18.576,13.28,34.387,31.578,37.595l11.784,2.066c-36.155,7.981-63.84,39.199-66.002,77.597l-2.996,53.185
			c-0.139,2.471,0.745,4.89,2.445,6.689c1.7,1.798,4.066,2.817,6.541,2.817h269.301c2.475,0,4.84-1.019,6.541-2.817
			C325.21,360.021,326.094,357.603,325.955,355.131z M99.005,204.553c-9.669-1.695-16.686-10.049-16.686-19.865V118
			c0-55.14,44.86-100,100-100s100,44.86,100,100v66.481c0,9.899-7.086,18.265-16.85,19.894l-33.041,5.511
			c15.396-13.783,25.107-33.791,25.107-56.032v-63.46c0-7.191-3.004-18.764-3.347-20.06c-1.267-4.793-6.169-7.66-10.971-6.409
			L113.833,97.643c-3.964,1.033-6.73,4.613-6.73,8.709v47.501c0,22.577,10.012,42.847,25.814,56.645L99.005,204.553z
			 M182.319,211.069c-31.549,0-57.216-25.667-57.216-57.216v-40.546l113.619-29.61c0.466,2.559,0.813,5.042,0.813,6.696v63.46
			C239.535,185.402,213.868,211.069,182.319,211.069z M230.02,228.536l-47.701,86.128l-47.373-85.536l15.411,2.703
			c9.926,1.74,19.927,2.611,29.932,2.611c9.527,0,19.058-0.79,28.526-2.369L230.02,228.536z M57.189,346.638l2.46-43.679
			c1.879-33.365,28.249-59.86,61.044-62.41l53.751,97.053c1.585,2.863,4.6,4.64,7.873,4.64s6.288-1.776,7.873-4.64l53.751-97.053
			c32.795,2.55,59.166,29.045,61.044,62.41l2.46,43.679H57.189z"/>
	</g>
</g>
<g>
</g>
<g>
</g>
<g>
</g>
<g>
</g>
<g>
</g>
<g>
</g>
<g>
</g>
<g>
</g>
<g>
</g>
<g>
</g>
<g>
</g>
<g>
</g>
<g>
</g>
<g>
</g>
<g>
</g>
</svg>
